<?xml version="1.0" encoding="UTF-8"?>
<svg xmlns="http://www.w3.org/2000/svg" version="1.1" viewBox="0 0 706.2 885.2">
  <!-- Generator: Adobe Illustrator 29.5.1, SVG Export Plug-In . SVG Version: 2.1.0 Build 141)  -->
  <defs>
    <style>
      .st0 {
        mix-blend-mode: exclusion;
      }

      .st1 {
        isolation: isolate;
      }

      .st2 {
        fill: #fd0;
      }
    </style>
  </defs>
  <g class="st1">
    <g id="_Шар_2">
      <g id="_Шар_1-2" class="st0">
        <g>
          <path class="st2" d="M177.9,671.4c-4.5,12.2-8.8,23.7-10.7,36.3-1.4,9.5-1.7,20.2-2,30,0,.8,0,3,1.3,2.5,2.2-.9,7.6-7.1,10.1-9.8,6.5-6.8,12.9-14.1,19.3-21,5.6-6,11.8-12.3,17.2-18.1,2-2.1,4.9-3.9,6-6.2,1.4-2.9,1-7.5-.3-12.1-1.6-5.9-7.1-10.1-12.6-11.7,0,0-.1,0-.2,0-13.3-5.8-23.1-3.7-28.3,10.2h0Z"/>
          <path class="st2" d="M247.1,751.6c2.8-2.8,7.4-7.1,6.9-8.7-.5-1.8-22.6,11.2-21.1-1.4,1.6-13,6.7-26.8,7.5-40.5.4-6.8.7-29.6-6.1-28.4-3.4.6-6.8,7.4-9.5,11.3-10.8,16-18,35.6-25.2,53.9-.5,1.2-1,2.5-1.4,3.6-9,2.3-17,6.4-18,14.4-.2,1.8-.1,3.8.1,6-.8.3-1.7.5-2.6.7-4.5,1.1-20.6-1.4-23.2-10.9-2.5-9-2.4-17.6-2.5-26.4-.1-7.4-.5-13.3-6.4-9.8-1.1.7-5.6,4.1-7-.7-1.3-4.4-.8-8-.3-13.2.8-8.7,1.8-21,6-26.8,3-4.3,9.4-4,13.5-7,3.3-2.4,5.9-9.6,5.6-14.3-.4-6.6-10.5-13.4-6.5-18,3.8-4.4,11.1-4.6,16.6-5.8,7.6-1.7,13.6-6.9,17.9-14.7,1.9-3.4,7.8-12.3,1.1-16.9,0,0,0,0,0,0-8.2-3.3-16.4-2.9-24.4-4.2-6-1-14.4-3.5-19.8-3.7-14.1-.5-30,.8-45.1-.8-14-1.5-25.3-10-35.4-18.6-11.6-9.8-23.2-22.4-34.9-31-1.5-1.1-12.3-11.3-6.8,2,5.2,12.8,11.7,25.4,19.1,36.9,6.1,9.4,12.8,18.6,19.8,27.5,10.6,13.5.6,11.8-2.3,12.9-11,4.2-17.1,16.8-19.9,26.8-2.9,10.4,3.6,35.3,15.5,35.6,4.5,0,8.8-6.1,12.3-10.3,6-7.3,12.8-14,20.5-17.5,5.7-2.6,11.9-7.7,19.9-3.7,2.8,1.4,6,4.8,8.8,6.8,2.3,1.6,5,2.9,7.1,4.6.6.5,1.1.9,1.5,1.7,4.2,10.1-2.1,26.7-3.7,38.8-3.3,24.9-6.2,49.9-3.3,74.7,1.6,13.8,5.9,26.3,13.5,37.5,9.1,13.4,32.6,30.4,49.8,25.7,8.7-2.4,17.8-11.9,21.9-20.2,7.2-14.3,12.6-30.5,18.4-44.3,3.8-9,15.4-16.8,22.3-23.7h0Z"/>
          <path class="st2" d="M637.8,543.4c-8.6-2.7-18.7-5.7-26.6-6.5-2.3-.2-7.5-2.1-8.6,2.1-.6,2.4.3,6.7-.4,10.2-1.8,8.7-7.1,7.1-10,7-9.5-.2-21.4-11.1-30.3-16.4-5.3-3.2-11.5-6.2-16.7-4.1-5.2,2.1-9.2,12.7-11.5,22.8-1.4,6-2.4,15.1-.3,17.7,1.8,2.2,5.5,2.8,9.2,3.3,3.7.5,7.7,1,11.5,1.4,17.4,2,35.7,4.5,52.3,5.4,6.2.3,12.2,3.4,15.3,15.6,2.3,9,4.5,18.3,7.1,27.3,1.7,5.8,3.7,11.1,5.5,16,1.5,4.1,4.1,8.5,3,14.6-1.9,10-12.2,16.1-17,18.8-8.8,4.9-19.5,6.2-29.9,5.9-4.8-.1-12.2,0-19,8.4-3.5,4.3-5.3,9.9-7.6,14.4-3.4,6.7-8.8,14.2-15.5,18.2-10.9,6.5-21.2,7-25.7,20.6-.6,2-1.3,4.5-2.1,6.2-.4,1-.8,2-1.7,2.6-2,1-5.1-2.1-7.8-5.4-.2-.5-.5-1-.7-1.4-11.2-22.3-29.3-28.1-53.2-29.1-1.9,0-5.5-.5-9.6-.8-8-9.6-14.6-22.2-29.3-18.2-12.8,3.5-8.5,14.5-3.5,23-.7-.7-1.6-1.4-2.8-2.1-11-6-26-5.8-38.8-5.5-4.6.1-9,.3-13.7.4-16.4.3-33.1-3.3-49.5-.8-.1,0-.2,0-.3,0-6.6,1.4-11.5,4.6-16.2,7.6-9.1,5.8-19.4,11.7-26.4,20.1-2.3,2.8-5.1,5.8-5,9.2.1,5.7,15,1.6,19,1.6,5.8,0-8.4,8.2-9.4,8.9-12,8.7-34,17-40.1,32-2.9,7-1,16.4,2.1,26,4.2,13.1,6.2,22.8,14.6,32.3,35.1,39.9,137.5,45.6,178,3.4,20.9-21.8,30.2-50.1,18.6-80.1-2.8-7.1-7.7-13.7-14.5-19.1-4.4-3.5-12.2-6.9-15.2-10-6.1-6.2,3.4-14.8,1.2-21.3,1,1.5,1.9,2.9,2.7,4.1,7.1,10.7,17,20.5,24,30.5,9.3,13.3,16.6,30.4,25.4,45,5.9,9.7,11.4,16.9,16,21.2,1.9,1.8,4.2,3.4,8,4,17,2.9,31.5-11.5,46.2-15.9,8.2-2.5,14.7.5,23.6-1.8,17.3-4.4,29.8-21.3,35.1-37.4,1.6-4.8,3.1-10,4.3-14.4,1.6-5.7,1.6-13.6,7.8-19.5,4.3-4.1,8.5-5.4,14.5-8,5.9-2.6,12.6-5.5,18.8-9,20.4-11.7,37.7-30.3,42.5-53.2,2.7-12.8-.2-26.9,2.4-40,1.7-8.4,4.3-18,4.8-26.7,0-.1,0-.2,0-.3.4-11.4-4.9-19.2-11.5-27-11.3-13.2-25.2-28-43-33.6h0ZM325.4,729.5c3.8-2.5,13.7-4.1,18.3-.8,0,0,0,0,.1.1,2.5,4.3-19.1,7.2-21.3,4.5-.9-1.1,1.3-2.7,3-3.8h0ZM420.3,812.7c-3.6,9.2-13.2,17.9-20.4,26-8.1,9.2-17.3,15.5-28,20.5-14.4,6.6-34.5,6.1-49.5,2-23.7-6.5-49.8-20.9-58-45.8-4.6-13.8,10.5-24.9,18-34.7,6.4-8.3,11.2-18.9,17.8-27.1,7.4-9.2,20.5-13.2,32-15.3,12.4-2.3,26.3-6.1,38.9-3.2,0,0,0,0,.1,0,5.4,2.5,7.7,5.7,14.6,8.5,12.7,5.1,18.6,10.5,25,22,9.3,16.6,16,30.3,9.4,47.1h0ZM510.1,810.9c-.7,3.1-3.4,10.1-10.4,12.7-9.6,3.6-16.9-7.8-19.2-10.8-9.2-12.3-15.9-32.2-16.9-47.4-.1-2-3.3-13.8.9-15.4,1.2-.5,5.8,1.8,5.5.2,0-.5-.4-1.3-.9-2.1,4.7,4.8,8.6,11.1,12.9,16.6-1.5-1.5-2.4-2.1-2.2-1.5,2.7,10.8,12.5,23.6,21.4,32.9,4.1,4.3,10.4,7.7,8.8,14.9h0ZM568.6,754.8h0c4.7-12.5,6.5-10.2,0,0ZM669.3,613.1c-3.9,12.2-14-4.9-16.6-7.7-4.3-4.5-10.3-14.6.3-15.8,4.2-.5,9.7-.8,13.4,2,0,0,0,0,.1.1,2.7,2.1,6.1,11.2,2.8,21.5h0Z"/>
          <path class="st2" d="M705.4,308.5c-.9-9.8-2-19.9-3.5-29.7-5-32.4-12.9-63.5-26.6-93.5,0-.1,0-.2-.2-.3-16.7-31.9-36.5-61.9-61.6-86.5-15-14.7-32.3-27.6-50.1-39.1-9.7-6.2-19.8-12.3-29.9-17.5-8.4-4.3-17.4-8.2-26.2-12-.1-.2-.2-.4-.4-.5-6.6-8.6-16-12.5-25.8-16.2-.1,0-.2,0-.3,0-17.9-4.2-30.5,6.8-45.3,14.2-23.3,11.8-46.5,25.3-69.3,37.2-15.2,7.9-37.8,4.2-50.3,14.2-3.8,3-.2,7.5.8,10.8,1.4,4.3-.9,9.6-2.7,14.3-.7,1.9-1.5,3.7-2.2,5.6-3.8-7.5-8.2-15.3-9.5-21.5-1-4.7,1.4-8.7,7.3-12.9,3.3-2.3,7.3-4.4,8.7-7,1.4-2.6-.2-6.1-1.1-9.5-1.6-6.2-3.3-13-3-19.3.5-12.5,1.5-22.9-4.2-32.6-2.4-4.1-12.2-6.6-23.6-6.7-7.5,0-18.3,0-24,3.8,0,0,0,0-.1,0-4.9,5.2-.9,11.4.1,15.6,2.3,10,7,21.3,11.7,31.5.8,1.8,1.6,4,1,6-1,3.3-6.5,6.2-10.8,9.4-10.4,7.9-22.2,13.6-33.7,19.6-9.7,5-23,16.7-33.4,14.8-7.5-1.4-15.4-5.7-20.2-10.1-1.7-1.5-3.3-3.3-4.9-5.3-.9-6.2-.9-12.8-1.3-18.3-.3-4.3-1.2-9.7-5.3-11.2-8.7-3.3-20.4,3.5-27.8,7.8-6.4,3.7-12.5,10-12.8,13.4,0,.5,0,1.1,0,1.6-2.6,4.6-4.1,9.3-3.9,12.7.3,8,7.9,18.3,11.8,26.1,3.8,7.7,11.6,17.8,19.7,21.7,7.5,3.6,14,9.5,16.4,18.3.3,1.2.8,2.4,1.3,3.4.1,4.9,1,9.7.8,14-.5,13.5-24.6,12.3-34.3,11.1-4.9-.6-12.3-2.6-19,4.9-3.8,4.3-6,11.4-7.9,16.9-1.6,4.6-3.5,10.2-6.7,13.8-6.7,7.4-13.1,16.7-11.7,27.1.3,2.4,2.1,8.7-1.1,9.8-2.3.8-7.2-.8-11.7-1.7-1.6-.3-21.3-5.1-14.8.3,6.9,5.8,17.3,10.1,26.2,13.1,3.5,1.2,7.1,3.3,9.9,7,3.3,4.5,3,10.6-3.2,11.5-4.4.6-9.6.3-14.2.3-1.4,0-8.8.5-7.4,1.2,7.2,3.6,19.1,4,28.1,4.2,6.4.1,12.4-1.7,17.5,2.9,1.9,1.7,5.8,6.3,4.3,10.9-4.5,13.6-35.4,6.4-46.9,2.3-5.3-1.9-11.9-4.6-16-8.1-1.4-1.2-6.1-3.4-3.3-9.4,1.5-3.4.1-3-2.3-3.6-8.5-2.2-17.3-3.1-27,.5-18.3,6.9-27.3,10.5-29,31.1-1.6,19.9,4.9,29.5,24.5,18.8,7.5-4.1,15.7-9.2,23-12.1,14.4-5.7,30.2-5.1,46.5-5.9,9.7-.4,21.9-.2,29.9-4.1,9.1-4.5,9.9-20.1,14.2-29,2.8-5.7,8.1-7.6,11.9-11,9.9-8.7,6.9-22.5,4.7-33-.9-4.1-3.9-12.2.1-17,3.7-4.4,12.2-5.2,17-6.4,10.1-2.4,22.3-4.7,29.5-12.9,3.5-4,4.1-9.7,6-14.2,1.9-4.5,6.3-8.7,9.2-13,0,0,0,0,0-.1,1.5-2.5,2-4.9,2-7.1,3.9-2,6-5.6,5.7-11.9-.4-7-6.1-11-10.8-15-.9-3.7-1.9-7.4-3-11.1,1.8-5.3,6.8-10.3,10.6-13,12.6-8.8,26.4-19.7,40.9-26.3,12-5.5,20.8,2.6,25.3,13.1,1.5,3.5,4.5,7.4,8.2,10.1,2.7,1.9,5.9,3.8,8.8,5.6-2.1,4.2-4.2,8.3-6.4,12.5-2.2,4.2-4.5,8.6-6.5,12.7-1.9,3.7-4.1,10.6-1.4,12.5,2.4,1.7,7-3.9,9.6-5.3,4.6-2.6,12.3-4,16.5-7.8,3.4-3.1,6.2-7,8.9-10.4,8.4-10.8,17.7-21.4,25.1-32.8,2.4-3.7,3.6-8.1,9.4-10.7,4.2-1.9,12.4-2.1,19-1.5,5.1.4,11.3,1,16.2,2,8.7,1.7,13.8,5.3,10.4,9.3-3.4,4-2.3,7.4,4.3,12,10.4,7.2,29.2,8.3,35.5,17.9,5.4,8.4-2.5,18.1-2,27.2.2,4,2,9.3,6.6,12.6,7.6,5.6,14.5-5.6,18.2-8.2,1.7-1.2,3.4-2.8,4.9-4.2,3.3-2.9,4.6-7.1,5.5-11.4,1.2-5.6,3.5-14.2,5-20.6,1-3.9,2.1-7.8,3.8-11,2.5-4.9,5.4-7.1,7.3-11.4,1.8-4,3.2-8.5,4.6-12.7,4.1-12.8,9.5-26.2,12.6-39,19.4,9.6,38.4,20,56.2,32.1,10.1,6.8,12.7,12.2,11.2,15.8-.9,2.2-2.7,4.8-3,7.6-.5,5,5.4,14.2,13.1,21.6,3.7,3.6,7.1,6,10.2,8.7,2,1.7,3.7,3.5,4.6,6,2.6,7.6,2.4,15.5,1,20.7-2.2,8.2-8.8,14.4-13.5,20.1-1.6,1.9-6.4,6-5.8,8,.2.8,3,.7,6.5,0,4.9-1,10.7-2.6,15.6-3.9,3.5-.9,6.6-2.2,10-3.1,3.8-1,8.1,1.9,12.1,3.5,10.2,3.9,9.3-8.3,13.2-14.1,1.5-2.2,6.6,3.8,9.5,8.9,18.8,32.4,28.4,70.1,34.2,107.5,1.9,12.5,2.7,25.9,6,38,3,10.9,9.7,17.6,12.4,3.9,1.9-9.5,1.3-20.6.4-30.2h0ZM127.6,239.9h0c0,0-.4-3.7-.3-5.4,0-.4.2-1.4.3-1.4.3.1.2,5,0,6.9ZM208.1,106.2c-.2-3,22.6-17.9,35.3-20.8.9-.2,1.8-.3,2.3-.1,0,0,0,0,0,0-5.4,4.9-37.5,22.2-37.6,20.9ZM381.7,78.2c-10.8-1.5-3.5-4.4,2.2-7.9,7.8-4.8,16.5-9.1,25-12.9,13.2-5.9,15.2-6.8,16.7,4.1,0,0,0,0,0,.2.5,5,2.1,11.5-.2,15-6.5,9.7-32.6,3.2-43.7,1.6h0ZM443.4,112.6c0,0,0,0-.1,0-4.8,1.7-20.3-3.3-16.4-6.9,2.2-2,9.5-1.1,14.2.8,4.5,1.8,5.5,5.2,2.3,6.1ZM470.4,55.8s0,0,0,.1c-3.3,6.4-7.4,13.2-10.2,19.9-.7,1.6-1.4,3.3-2.2,4.8-2,3.7-3.5,8.7-9.9,10-4.2.9-10-.8-12.1-4-1.7-2.5-1.1-5-.2-7,1.2-2.7,2.6-5.5,4.1-8.5,2.5-5,5.7-10.8,8.3-14.5,1.6-2.2,3.2-4.4,6.3-6,5.3-2.8,18.9-2.4,16.1,5.2ZM588.7,106.9c-7.5-8.5,11.1,9.6,12.8,11.6,3,3.4,8.6,10.1,9.7,12.3,0,0,0,0,0,.1-7.5-4.9-15.9-16.3-22.6-24h0Z"/>
          <path class="st2" d="M562.5,137.2h-.2c-9.8.3-14.5,8.3-19.3,14.6-14.1,18.5-29.3,37.8-40.1,58.9-2.2,4.4-4.7,14.5,4,17.1,5.8,1.7,12.3-3.5,16.7-6.4,4.4-3,9.3-6.8,13.5-10.2,10.4-8.7,18.8-19.5,27.2-30.1,12.3-15.3-1-7.8-9.2-5.1-5.6,1.8-11.2,4.2-16.6,6-3.8,1.3-6.9,2.8-8.6,2.3-.1,0-.2-.2-.3-.3,0-.5.2-.9.5-1.3,2.5-3.6,7-7.3,10.9-9.4,9.4-5.1,24.4-4.2,33.9-7.2,4.2-1.3,9.9-4.8,9.1-11.5-1.2-9.4-11.8-17.1-21.6-17.3h0Z"/>
          <path class="st2" d="M581.1,165.6c-1.3.9-4.6,3.9-1.7,4.4,2.8.5,10-2.9,9-6.4-.6-2.2-5.8,1.2-7.1,2,0,0,0,0-.2.1h0Z"/>
        </g>
      </g>
    </g>
  </g>
</svg>